<?xml version="1.0" encoding="UTF-8" standalone="no"?>
<svg
   xmlns:dc="http://purl.org/dc/elements/1.1/"
   xmlns:cc="http://creativecommons.org/ns#"
   xmlns:rdf="http://www.w3.org/1999/02/22-rdf-syntax-ns#"
   xmlns:svg="http://www.w3.org/2000/svg"
   xmlns="http://www.w3.org/2000/svg"
   xmlns:sodipodi="http://sodipodi.sourceforge.net/DTD/sodipodi-0.dtd"
   xmlns:inkscape="http://www.inkscape.org/namespaces/inkscape"
   id="Layer_1"
   enable-background="new 0 0 24 24"
   height="512"
   viewBox="0 0 24 24"
   width="512"
   version="1.1"
   sodipodi:docname="quote.svg"
   inkscape:version="0.92.4 (5da689c313, 2019-01-14)">
  <metadata
     id="metadata822">
    <rdf:RDF>
      <cc:Work
         rdf:about="">
        <dc:format>image/svg+xml</dc:format>
        <dc:type
           rdf:resource="http://purl.org/dc/dcmitype/StillImage" />
      </cc:Work>
    </rdf:RDF>
  </metadata>
  <defs
     id="defs820" />
  <sodipodi:namedview
     pagecolor="#ffffff"
     bordercolor="#666666"
     borderopacity="1"
     objecttolerance="10"
     gridtolerance="10"
     guidetolerance="10"
     inkscape:pageopacity="0"
     inkscape:pageshadow="2"
     inkscape:window-width="1945"
     inkscape:window-height="1332"
     id="namedview818"
     showgrid="false"
     inkscape:zoom="3.6679688"
     inkscape:cx="256"
     inkscape:cy="256"
     inkscape:window-x="4136"
     inkscape:window-y="332"
     inkscape:window-maximized="0"
     inkscape:current-layer="Layer_1" />
  <path
     d="m4.7 17.7c-1-1.1-1.6-2.3-1.6-4.3 0-3.5 2.5-6.6 6-8.2l.9 1.3c-3.3 1.8-4 4.1-4.2 5.6.5-.3 1.2-.4 1.9-.3 1.8.2 3.2 1.6 3.2 3.5 0 .9-.4 1.8-1 2.5-.7.7-1.5 1-2.5 1-1.1 0-2.1-.5-2.7-1.1zm10 0c-1-1.1-1.6-2.3-1.6-4.3 0-3.5 2.5-6.6 6-8.2l.9 1.3c-3.3 1.8-4 4.1-4.2 5.6.5-.3 1.2-.4 1.9-.3 1.8.2 3.2 1.6 3.2 3.5 0 .9-.4 1.8-1 2.5s-1.5 1-2.5 1c-1.1 0-2.1-.5-2.7-1.1z"
     id="path815"
     style="fill:#9ab79b;fill-opacity:1" />
</svg>
